<svg width="100" height="100" viewBox="0 0 100 100" fill="none" xmlns="http://www.w3.org/2000/svg">
<path d="M46.2438 4.95L49.9625 0L53.7 4.9375C54.4051 5.8663 54.7372 7.02536 54.6308 8.18663C54.5243 9.34791 53.9872 10.4273 53.125 11.2125V24.925H68.75C72.0652 24.925 75.2446 26.242 77.5888 28.5862C79.933 30.9304 81.25 34.1098 81.25 37.425V56.175H87.5C90.8152 56.175 93.9946 57.492 96.3388 59.8362C98.683 62.1804 100 65.3598 100 68.675V93.675C100 95.3326 99.3415 96.9223 98.1694 98.0944C96.9973 99.2665 95.4076 99.925 93.75 99.925H6.25C4.5924 99.925 3.00269 99.2665 1.83058 98.0944C0.65848 96.9223 0 95.3326 0 93.675V68.675C0 65.3598 1.31696 62.1804 3.66117 59.8362C6.00537 57.492 9.18479 56.175 12.5 56.175H18.75V37.425C18.75 34.1098 20.067 30.9304 22.4112 28.5862C24.7554 26.242 27.9348 24.925 31.25 24.925H46.875V11.2563C45.994 10.477 45.4396 9.394 45.3225 8.22368C45.2055 7.05337 45.5345 5.88199 46.2438 4.94375V4.95ZM75 40.0125C74.2493 40.0169 73.5053 39.8709 72.8119 39.5832C72.1185 39.2956 71.4897 38.872 70.9625 38.3375C69.8515 37.2256 68.5323 36.3435 67.0803 35.7416C65.6282 35.1398 64.0718 34.83 62.5 34.83C60.9282 34.83 59.3718 35.1398 57.9197 35.7416C56.4677 36.3435 55.1485 37.2256 54.0375 38.3375C52.9663 39.4077 51.5141 40.0088 50 40.0088C48.4859 40.0088 47.0337 39.4077 45.9625 38.3375C44.8515 37.2256 43.5323 36.3435 42.0803 35.7416C40.6282 35.1398 39.0718 34.83 37.5 34.83C35.9282 34.83 34.3718 35.1398 32.9197 35.7416C31.4677 36.3435 30.1485 37.2256 29.0375 38.3375C28.5103 38.872 27.8815 39.2956 27.1881 39.5832C26.4947 39.8709 25.7507 40.0169 25 40.0125V46.2625C28.0625 46.2625 31.125 45.0938 33.4625 42.7625C34.5337 41.6923 35.9859 41.0912 37.5 41.0912C39.0141 41.0912 40.4663 41.6923 41.5375 42.7625C46.2125 47.4313 53.7875 47.4313 58.4625 42.7625C59.5337 41.6923 60.9859 41.0912 62.5 41.0912C64.0141 41.0912 65.4663 41.6923 66.5375 42.7625C68.875 45.0938 71.9375 46.2625 75 46.2625V40.0125ZM91.5375 75.8375C91.007 76.3683 90.3771 76.7894 89.6838 77.0767C88.9905 77.3641 88.2474 77.5119 87.4969 77.5119C86.7464 77.5119 86.0033 77.3641 85.31 77.0767C84.6167 76.7894 83.9867 76.3683 83.4562 75.8375C82.3454 74.7265 81.0266 73.8452 79.5751 73.2439C78.1236 72.6426 76.568 72.3332 74.9969 72.3332C73.4258 72.3332 71.8701 72.6426 70.4186 73.2439C68.9672 73.8452 67.6483 74.7265 66.5375 75.8375C65.4663 76.9077 64.0141 77.5088 62.5 77.5088C60.9859 77.5088 59.5337 76.9077 58.4625 75.8375C57.3515 74.7256 56.0323 73.8435 54.5803 73.2416C53.1282 72.6398 51.5718 72.33 50 72.33C48.4282 72.33 46.8718 72.6398 45.4197 73.2416C43.9677 73.8435 42.6485 74.7256 41.5375 75.8375C40.4663 76.9077 39.0141 77.5088 37.5 77.5088C35.9859 77.5088 34.5337 76.9077 33.4625 75.8375C32.3515 74.7256 31.0323 73.8435 29.5803 73.2416C28.1282 72.6398 26.5718 72.33 25 72.33C23.4282 72.33 21.8718 72.6398 20.4197 73.2416C18.9677 73.8435 17.6485 74.7256 16.5375 75.8375C15.4663 76.9077 14.0141 77.5088 12.5 77.5088C10.9859 77.5088 9.53365 76.9077 8.4625 75.8375L6.25 73.6312V82.0062C10.8562 84.8313 16.9688 84.2562 20.9625 80.2562C22.0337 79.1861 23.4859 78.5849 25 78.5849C26.5141 78.5849 27.9663 79.1861 29.0375 80.2562C33.7125 84.9312 41.2875 84.9312 45.9625 80.2562C47.0337 79.1861 48.4859 78.5849 50 78.5849C51.5141 78.5849 52.9663 79.1861 54.0375 80.2562C58.7125 84.9312 66.2875 84.9312 70.9562 80.2562C71.4867 79.7254 72.1167 79.3043 72.81 79.017C73.5033 78.7297 74.2464 78.5818 74.9969 78.5818C75.7474 78.5818 76.4905 78.7297 77.1838 79.017C77.8771 79.3043 78.507 79.7254 79.0375 80.2562C80.9372 82.1575 83.4216 83.364 86.0904 83.6814C88.7593 83.9989 91.4573 83.4088 93.75 82.0062V73.6312L91.5375 75.8375Z" fill="black"/>
</svg>
