<svg width="63" height="88" viewBox="0 0 63 88" fill="none" xmlns="http://www.w3.org/2000/svg">
<path d="M61.4688 31.1211L52.9649 2.24219C52.7744 1.59517 52.3796 1.02717 51.8396 0.623044C51.2996 0.218914 50.6433 0.000348938 49.9688 0H12.5548C11.8803 0.000348938 11.224 0.218914 10.684 0.623044C10.144 1.02717 9.74922 1.59517 9.55868 2.24219L1.05477 31.1211C-0.279448 35.5475 -0.349275 40.2588 0.853176 44.7227C2.05563 49.1867 4.48243 53.2255 7.85946 56.3828C13.4147 61.5921 20.5522 64.7944 28.1368 65.4805V81.25H15.6368C14.808 81.25 14.0131 81.5792 13.4271 82.1653C12.841 82.7513 12.5118 83.5462 12.5118 84.375C12.5118 85.2038 12.841 85.9987 13.4271 86.5847C14.0131 87.1708 14.808 87.5 15.6368 87.5H46.8868C47.7156 87.5 48.5105 87.1708 49.0965 86.5847C49.6826 85.9987 50.0118 85.2038 50.0118 84.375C50.0118 83.5462 49.6826 82.7513 49.0965 82.1653C48.5105 81.5792 47.7156 81.25 46.8868 81.25H34.3868V65.4805C41.9714 64.7944 49.1089 61.5921 54.6641 56.3828C58.0404 53.225 60.4667 49.1862 61.6691 44.7224C62.8715 40.2586 62.8021 35.5476 61.4688 31.1211ZM14.8907 6.25H47.6329L55.4806 32.8867C55.5157 33.0039 55.547 33.1211 55.5782 33.2383C47.211 36.2383 37.7891 32.6133 32.6759 30.0234C22.836 25.043 15.0235 24.4102 9.2618 25.3633L14.8907 6.25Z" fill="black"/>
</svg>
