<svg width="88" height="88" viewBox="0 0 88 88" fill="none" xmlns="http://www.w3.org/2000/svg">
<path d="M74.0547 12.7832C65.709 4.6582 54.6641 0 43.75 0C32.8359 0 21.791 4.6582 13.4453 12.7832C4.77539 21.2246 0 32.0312 0 43.75C0 55.4688 5.24219 66.8926 8.87109 73.4863C12.5 80.0801 17.3828 87.5 21.875 87.5C28.125 87.5 40.625 81.25 40.625 81.25L18.75 40.625L8.12109 46.8223C7.99025 45.6001 7.92505 44.3717 7.92578 43.1426C7.92578 33.6562 11.6992 24.7637 18.8926 17.752C25.8281 11.0039 34.7656 7.42188 43.75 7.42188C52.7344 7.42188 61.666 11.0039 68.6074 17.7598C75.8008 24.7637 79.5723 33.6562 79.5723 43.1504C79.5729 44.3783 79.5077 45.6053 79.377 46.8262L68.75 40.625L46.875 81.25C46.875 81.25 59.375 87.5 65.625 87.5C70.1172 87.5 75 80.0781 78.6289 73.4863C82.2578 66.8945 87.5 55.4688 87.5 43.75C87.5 32.0312 82.7246 21.2246 74.0547 12.7832Z" fill="black"/>
</svg>
