<svg width="90" height="82" viewBox="0 0 90 82" fill="none" xmlns="http://www.w3.org/2000/svg">
<path fill-rule="evenodd" clip-rule="evenodd" d="M81.25 32.7836L84.5083 35.3919C85.157 35.8974 85.9787 36.1268 86.7954 36.0305C87.6121 35.9341 88.3579 35.5197 88.8711 34.8771C89.3842 34.2346 89.6235 33.4156 89.5368 32.5978C89.4502 31.7801 89.0447 31.0294 88.4083 30.5086L54.5542 3.42524C51.7834 1.208 48.3404 0 44.7917 0C41.243 0 37.7999 1.208 35.0292 3.42524L1.175 30.5086C0.52743 31.0263 0.112047 31.7801 0.0202328 32.6041C-0.0715819 33.428 0.167692 34.2548 0.685417 34.9023C1.20314 35.5499 1.95691 35.9653 2.7809 36.0571C3.60488 36.1489 4.4316 35.9096 5.07917 35.3919L8.33333 32.7836V75.6586H3.125C2.2962 75.6586 1.50134 75.9878 0.915291 76.5739C0.32924 77.1599 0 77.9548 0 78.7836C0 79.6124 0.32924 80.4072 0.915291 80.9933C1.50134 81.5793 2.2962 81.9086 3.125 81.9086H86.4583C87.2871 81.9086 88.082 81.5793 88.6681 80.9933C89.2541 80.4072 89.5833 79.6124 89.5833 78.7836C89.5833 77.9548 89.2541 77.1599 88.6681 76.5739C88.082 75.9878 87.2871 75.6586 86.4583 75.6586H81.25V32.7836ZM33.3333 26.7002C33.3333 23.6613 34.5406 20.7468 36.6894 18.598C38.8383 16.4491 41.7527 15.2419 44.7917 15.2419C47.8306 15.2419 50.7451 16.4491 52.8939 18.598C55.0428 20.7468 56.25 23.6613 56.25 26.7002C56.25 29.7392 55.0428 32.6537 52.8939 34.8025C50.7451 36.9514 47.8306 38.1586 44.7917 38.1586C41.7527 38.1586 38.8383 36.9514 36.6894 34.8025C34.5406 32.6537 33.3333 29.7392 33.3333 26.7002ZM45 42.3252C47.7667 42.3252 50.1542 42.3252 52.0667 42.5836C54.1167 42.8586 56.0792 43.4794 57.6708 45.0711C59.2625 46.6627 59.8833 48.6252 60.1583 50.6752C60.4 52.4669 60.4167 54.6752 60.4167 57.2294V75.6586H54.1667V57.9502C54.1667 54.9169 54.1583 52.9502 53.9667 51.5086C53.7833 50.1544 53.4917 49.7294 53.25 49.4919C53.0083 49.2544 52.5875 48.9586 51.2333 48.7752C49.7875 48.5836 47.825 48.5752 44.7917 48.5752C41.7583 48.5752 39.7917 48.5836 38.35 48.7752C36.9958 48.9586 36.5708 49.2544 36.3333 49.4919C36.0958 49.7294 35.8 50.1544 35.6167 51.5086C35.425 52.9544 35.4167 54.9169 35.4167 57.9502V75.6586H29.1667V57.7419C29.1667 54.9752 29.1667 52.5877 29.425 50.6752C29.7 48.6252 30.3208 46.6627 31.9125 45.0711C33.5042 43.4794 35.4708 42.8586 37.5167 42.5836C39.4292 42.3252 41.8167 42.3252 44.5875 42.3252H45Z" fill="black"/>
</svg>
