<svg width="91" height="91" viewBox="0 0 91 91" fill="none" xmlns="http://www.w3.org/2000/svg">
<path d="M77.0287 13.2234C73.2426 9.43744 68.953 6.46694 64.3776 4.30659C65.4508 7.6185 66.0592 11.2324 66.2541 15.0609C68.1994 15.8279 70.05 17.0171 71.6428 18.6097C73.235 20.2021 74.4241 22.0527 75.1912 23.998C79.02 24.1929 82.6336 24.8013 85.9455 25.8746C83.7854 21.2992 80.8147 17.0093 77.0287 13.2234ZM59.8842 2.47455C45.8965 -2.36099 30.0151 -0.109431 17.7918 9.22729C30.7309 7.76108 42.9994 10.7634 53.2483 16.8751C55.8278 14.606 59.2112 13.7337 62.6077 14.1335C62.2834 9.81186 61.3912 5.87182 59.884 2.47455H59.8842ZM87.7776 30.3679C84.3801 28.8607 80.4403 27.9683 76.1186 27.6443C76.5184 31.0408 75.6459 34.4242 73.377 37.0037C79.4887 47.2525 82.4911 59.5212 81.0248 72.4603C90.3618 60.2371 92.6131 44.3556 87.7776 30.3679ZM69.1565 21.0955C64.8524 16.7913 58.6213 16.4392 55.2078 19.8525C51.7944 23.2658 52.1463 29.497 56.4506 33.8011C60.7549 38.1054 66.9858 38.4574 70.3994 35.0441C73.8129 31.631 73.4606 25.3996 69.1565 21.0955ZM51.0256 19.5519C40.1057 13.2164 26.7854 10.6269 12.8678 13.5882C1.63187 25.0753 -2.24645 41.0476 1.23539 55.6316C14.5766 42.8523 32.283 32.8355 49.3143 27.699C49.3901 27.6761 49.4659 27.6546 49.5416 27.6318C49.1289 24.7962 49.5989 21.9501 51.0254 19.5517L51.0256 19.5519ZM70.7002 39.2267C68.3018 40.6533 65.4557 41.1232 62.6202 40.7105C62.5975 40.7863 62.576 40.8621 62.5532 40.9378C57.4164 57.9691 47.3998 75.6755 34.6205 89.0167C49.2045 92.4986 65.1772 88.6203 76.6639 77.3843C79.6252 63.4663 77.0358 50.1464 70.7002 39.2267ZM50.4647 31.0251C50.4194 31.0388 50.3743 31.0511 50.3289 31.0648C33.2918 36.2029 15.3387 46.5277 2.3348 59.4701C4.48246 65.8851 8.11019 71.916 13.2231 77.029C18.3364 82.1423 24.367 85.7697 30.7817 87.9177C43.7244 74.9134 54.0493 56.9601 59.1871 39.9236C59.2008 39.8781 59.2131 39.833 59.2268 39.7876C57.3276 39.0191 55.5227 37.8455 53.9647 36.2876C52.4067 34.7294 51.233 32.9244 50.4647 31.0253V31.0251Z" fill="black"/>
</svg>
